<svg xmlns="http://www.w3.org/2000/svg" width="24.652" height="21" viewBox="0 0 24.652 21">
  <g id="Group_27698" data-name="Group 27698" transform="translate(-0.001 -39.469)">
    <path id="Path_17808" data-name="Path 17808" d="M23.587,42.458a6.308,6.308,0,0,0-2.9-2.468,6.923,6.923,0,0,0-4.4-.3,9.382,9.382,0,0,0-3.967,2.188,9.382,9.382,0,0,0-3.967-2.189,6.92,6.92,0,0,0-4.4.3,6.308,6.308,0,0,0-2.9,2.468A7.329,7.329,0,0,0,0,46.508c.121,6.658,9.967,12.711,11.94,13.857a.766.766,0,0,0,.77,0c1.973-1.146,11.82-7.2,11.94-13.859A7.329,7.329,0,0,0,23.587,42.458Zm-.476,4.021c-.039,2.153-1.463,4.662-4.12,7.257a37.656,37.656,0,0,1-6.664,5.058,37.631,37.631,0,0,1-6.664-5.057c-2.657-2.6-4.081-5.1-4.12-7.257A5.121,5.121,0,0,1,4.56,41.421a5.1,5.1,0,0,1,2-.4A7.477,7.477,0,0,1,11.778,43.5a.767.767,0,0,0,1.1,0c2.186-2.239,4.952-3.034,7.218-2.076a5.12,5.12,0,0,1,3.018,5.058Z" transform="translate(0 0)"/>
  </g>
</svg>
