<?xml version="1.0" encoding="utf-8"?>
<!-- Generator: Adobe Illustrator 23.0.0, SVG Export Plug-In . SVG Version: 6.00 Build 0)  -->
<svg version="1.1" id="Layer_1" xmlns="http://www.w3.org/2000/svg" xmlns:xlink="http://www.w3.org/1999/xlink" x="0px" y="0px"
	 viewBox="0 0 500 176" style="enable-background:new 0 0 500 176;" xml:space="preserve">
<style type="text/css">
	.st0{fill:#081F66;}
	.st1{fill:#E2107D;}
	.st2{fill:#FBCE7B;}
	.st3{fill:#FFDCA6;fill-opacity:0.1;}
	.st4{fill:#CF1673;}
	.st5{fill:#FFFFFF;}
	.st6{fill:#545454;}
	.st7{fill:#737373;}
	.st8{fill:#A4A6A4;}
	.st9{fill:#FCB3A0;}
	.st10{fill:#E7866C;}
	.st11{fill:#4385D8;}
	.st12{fill:#FFAD9B;}
	.st13{fill:#FFCABD;}
	.st14{opacity:0.37;}
	.st15{fill:#FFC4E0;}
	.st16{fill:#EE9D8D;}
	.st17{fill:#DAE7F7;}
	.st18{fill:none;stroke:#E2107D;stroke-width:0.5;stroke-miterlimit:10;}
</style>
<g>
	<g>
		<g>
			<g>
				<g>
					<path class="st0" d="M48.4,17.4c12.8,0,22.3,2.4,28.8,7.3s9.7,12.2,9.7,21.9c0,7.3-1.8,13.2-5.4,17.9s-8.9,8-16.1,10.1
						l25.9,50.3H80.1L55.1,76H28.5v48.9h-10V17.4H48.4z M49.8,26H28.5v41.6h24.3c7.6,0,13.5-1.8,17.6-5.4c4.1-3.6,6.1-8.8,6.1-15.5
						c0-7-2.2-12.2-6.6-15.6C65.5,27.7,58.8,26,49.8,26z"/>
					<path class="st0" d="M175.8,116.3v8.6h-63.9V17.4h61.6V26h-51.7v37.7h37.4v8.6h-37.4v43.9h54V116.3z"/>
					<path class="st0" d="M215,124.9V26h-31.8v-8.6h73.7V26H225v98.9H215z"/>
				</g>
				<g>
					<g>
						<path class="st0" d="M410.8,96.7l8.7-3.6c2.9,7.7,6.6,13.3,11.2,17c4.5,3.7,10.1,5.5,16.7,5.5c6.8,0,12.3-1.9,16.4-5.7
							s6.2-8.9,6.2-15.1c0-5-1.4-9.1-4.1-12.3s-7.3-6.2-13.8-8.8c-3.5-1.4-8.2-3.1-14.1-5.1s-9.6-3.5-11.2-4.4
							c-5.2-3-8.9-6.2-11-9.6c-2.2-3.4-3.3-7.6-3.3-12.6c0-8.9,2.7-15.9,8.2-21.1c5.5-5.1,13-7.7,22.6-7.7c8.5,0,15.6,2.1,21.1,6.3
							s9.8,10.6,12.7,19.3l-8.4,2.7c-2.7-6.7-6.1-11.6-10.3-14.8c-4.2-3.2-9.4-4.8-15.5-4.8c-6,0-10.8,1.7-14.5,5.2
							c-3.7,3.4-5.6,7.9-5.6,13.4c0,4.2,1.2,7.7,3.6,10.5c2.4,2.9,6.1,5.2,11.2,7c1.9,0.7,4.8,1.7,8.4,3c10.6,3.6,17.4,6.4,20.4,8.5
							c4.9,3.2,8.4,6.7,10.7,10.5c2.2,3.8,3.3,8.3,3.3,13.5c0,9.4-3,16.9-8.9,22.5s-14,8.4-24.1,8.4c-9.1,0-16.6-2.2-22.5-6.7
							C418.9,113.1,414.2,106.2,410.8,96.7z"/>
					</g>
				</g>
				<g>
					<g>
						<path class="st1" d="M106.8,148.9h1.7v13.2h-1.7V148.9z"/>
						<path class="st1" d="M118.5,153.1h-1.4v-1.4h1.4v-2.6h1.7v2.6h2.7v1.4h-2.7v6.1c0,1,0.4,1.4,1.4,1.4h1.3v1.5h-1.6
							c-1.8,0-2.9-0.8-2.9-2.9L118.5,153.1L118.5,153.1z"/>
						<path class="st1" d="M135.5,162.3c-2.4,0-4.1-1.3-4.3-3.2h1.8c0.1,1,1,1.8,2.5,1.8c1.4,0,2.1-0.7,2.1-1.5c0-2.3-6.2-1-6.2-4.8
							c0-1.6,1.5-2.9,3.8-2.9s3.8,1.2,3.9,3.3h-1.7c-0.1-1-0.9-1.8-2.3-1.8c-1.3,0-2,0.6-2,1.4c0,2.5,6,1.1,6.1,4.8
							C139.3,161,137.8,162.3,135.5,162.3z"/>
						<path class="st1" d="M164.5,151.5c1.9,0,3.3,1,3.9,2.1v-1.9h1.8v10.4h-1.8v-1.9c-0.6,1.1-2,2.1-3.9,2.1
							c-2.8,0-4.9-2.2-4.9-5.4C159.6,153.6,161.8,151.5,164.5,151.5z M164.9,153c-1.9,0-3.5,1.4-3.5,3.8c0,2.5,1.6,3.9,3.5,3.9
							s3.5-1.4,3.5-3.9C168.4,154.5,166.8,153,164.9,153z"/>
						<path class="st1" d="M191.6,148.9h7.5v1.4h-5.8v4.5h4.7v1.4h-4.7v6h-1.7V148.9L191.6,148.9z"/>
						<path class="st1" d="M212.2,151.5c1.9,0,3.3,1,3.9,2.1v-1.9h1.8v10.4h-1.8v-1.9c-0.6,1.1-2,2.1-3.9,2.1
							c-2.8,0-4.9-2.2-4.9-5.4C207.3,153.6,209.4,151.5,212.2,151.5z M212.6,153c-1.9,0-3.5,1.4-3.5,3.8c0,2.5,1.6,3.9,3.5,3.9
							s3.5-1.4,3.5-3.9C216.1,154.5,214.5,153,212.6,153z"/>
						<path class="st1" d="M231.9,151.5c2.6,0,4.3,1.3,4.8,3.5h-1.9c-0.4-1.3-1.4-2-3-2c-1.9,0-3.3,1.4-3.3,3.9
							c0,2.6,1.4,3.9,3.3,3.9c1.5,0,2.6-0.7,3-2h1.9c-0.5,2.1-2.2,3.5-4.8,3.5c-3,0-5.1-2.1-5.1-5.4
							C226.9,153.6,229,151.5,231.9,151.5z"/>
						<path class="st1" d="M245.5,148.9c0-0.7,0.5-1.2,1.2-1.2c0.6,0,1.1,0.5,1.1,1.2s-0.5,1.2-1.1,1.2
							C246,150,245.5,149.5,245.5,148.9z M245.8,151.7h1.7v10.4h-1.7V151.7z"/>
						<path class="st1" d="M257.1,148.1h1.7v14.1h-1.7V148.1z"/>
						<path class="st1" d="M273,162.3c-3,0-5.1-2.1-5.1-5.4c0-3.3,2.1-5.4,5.1-5.4s5,2.1,5,5c0,0.4,0,0.7-0.1,1h-8.3
							c0.1,2.1,1.6,3.3,3.4,3.3c1.6,0,2.5-0.8,2.9-1.9h1.9C277.3,160.8,275.6,162.3,273,162.3z M269.7,156.2h6.6
							c0-2-1.5-3.1-3.3-3.1C271.3,153,269.9,154.1,269.7,156.2z"/>
						<path class="st1" d="M302.5,162.3c-2.4,0-4.1-1.3-4.3-3.2h1.8c0.1,1,1,1.8,2.5,1.8c1.4,0,2.1-0.7,2.1-1.5c0-2.3-6.2-1-6.2-4.8
							c0-1.6,1.5-2.9,3.8-2.9s3.8,1.2,3.9,3.3h-1.7c-0.1-1-0.9-1.8-2.3-1.8c-1.3,0-2,0.6-2,1.4c0,2.5,6,1.1,6.1,4.8
							C306.3,161,304.8,162.3,302.5,162.3z"/>
						<path class="st1" d="M315.5,148.1h1.7v5.1c0.7-1.1,2-1.7,3.4-1.7c2.3,0,4.2,1.5,4.2,4.5v6.1h-1.7v-5.9c0-2.1-1.2-3.2-2.9-3.2
							c-1.8,0-3,1.1-3,3.3v5.8h-1.7V148.1z"/>
						<path class="st1" d="M338.9,162.3c-2.9,0-5.2-2.1-5.2-5.4c0-3.3,2.3-5.4,5.3-5.4s5.3,2.1,5.3,5.4
							C344.3,160.2,341.9,162.3,338.9,162.3z M338.9,160.8c1.8,0,3.6-1.2,3.6-3.9c0-2.6-1.7-3.9-3.5-3.9s-3.5,1.2-3.5,3.9
							C335.5,159.5,337.1,160.8,338.9,160.8z"/>
						<path class="st1" d="M358.9,151.5c2.8,0,4.9,2.1,4.9,5.3s-2.2,5.4-4.9,5.4c-1.9,0-3.3-1-3.9-2.1v6.9h-1.7v-15.4h1.7v1.9
							C355.6,152.5,357,151.5,358.9,151.5z M358.5,153c-1.9,0-3.5,1.4-3.5,3.9s1.7,3.9,3.5,3.9c1.9,0,3.5-1.4,3.5-3.9
							C362.1,154.4,360.5,153,358.5,153z"/>
						<path class="st1" d="M378.5,151.5c2.8,0,4.9,2.1,4.9,5.3s-2.2,5.4-4.9,5.4c-1.9,0-3.3-1-3.9-2.1v6.9h-1.7v-15.4h1.7v1.9
							C375.2,152.5,376.6,151.5,378.5,151.5z M378.1,153c-1.9,0-3.5,1.4-3.5,3.9s1.7,3.9,3.5,3.9c1.9,0,3.5-1.4,3.5-3.9
							S380,153,378.1,153z"/>
						<path class="st1" d="M399.6,151.7h1.8l-6.3,15.3h-1.8l2-5l-4.2-10.3h1.9l3.3,8.4L399.6,151.7z"/>
					</g>
				</g>
			</g>
			<g>
				<path class="st2" d="M317.9,128.9l2.2,5H320c-0.6-1.3-1.1-2.7-1.7-4C318.2,129.6,318,129.3,317.9,128.9z"/>
			</g>
			<path class="st3" d="M314.1,105.5c0.1-0.2,0.2-0.4,0.2-0.6c0.7-1.6,0.9-3.2,0.6-4.9c-0.1-0.9-0.2-1.7-0.3-2.6
				c0-0.3,0.1-0.6,0.3-0.9c0.3,0.1,2.2,0.9,2,3C316.9,99.6,317.7,105.4,314.1,105.5z"/>
			<path class="st3" d="M325.8,83.3l-1-0.1c-1-0.1-1.7-1-1.6-1.9v-0.5c0.1-1,1-1.7,1.9-1.6l1,0.1c1,0.1,1.7,1,1.6,1.9v0.5
				C327.6,82.6,326.8,83.3,325.8,83.3z"/>
			<path class="st3" d="M337.2,81.6l-1-0.1c-1-0.1-1.7-1-1.6-1.9v-0.5c0.1-1,1-1.7,1.9-1.6l1,0.1c1,0.1,1.7,1,1.7,1.9V80
				C339.1,81,338.2,81.7,337.2,81.6z"/>
			<path class="st3" d="M345,86.9l-1.3,0.2c-0.4,0-0.8-0.2-0.8-0.6l-0.2-1.3c0-0.4,0.2-0.8,0.6-0.8l1.3-0.2c0.4,0,0.8,0.2,0.8,0.6
				l0.2,1.3C345.7,86.5,345.4,86.9,345,86.9z"/>
			
				<rect x="349.02" y="92.5" transform="matrix(0.9738 -0.2276 0.2276 0.9738 -12.0703 82.0197)" class="st3" width="1.2" height="1.7"/>
			<path class="st2" d="M316.6,125.9c0.4,0.9,0.8,1.8,1.1,2.8l-3.4-7.7C315.2,122.6,315.9,124.3,316.6,125.9z"/>
			<path class="st2" d="M345,131.2c-0.1,0.8-0.3,1.5-0.6,2.2C344.6,132.6,344.8,131.9,345,131.2z"/>
		</g>
	</g>
	<path class="st4" d="M392.3,74c0,19.5-8.9,37-22.9,48.5c0,0-0.1,0-0.1,0.1c-6,4.9-13,8.8-20.6,11.2c-0.4,0.1-0.9,0.3-1.3,0.4
		c-5.7,1.7-11.7,2.6-17.9,2.6c-4.8,0-9.5-0.5-14-1.6c-9.5-2.1-18.1-6.4-25.4-12.3c-14.3-11.5-23.4-29.1-23.4-48.9
		c0-34.7,28.1-62.8,62.8-62.8C364.2,11.2,392.3,39.3,392.3,74z"/>
	<g>
		<g>
			<g>
				<g>
					<g>
						<g>
							<path class="st0" d="M348.3,110.7h-34.9c-2.8,0-5.1-2.3-5.1-5.1V31.5c0-2.8,2.3-5.1,5.1-5.1h34.9c2.8,0,5.1,2.3,5.1,5.1v74.1
								C353.4,108.4,351.1,110.7,348.3,110.7z"/>
							<path class="st5" d="M340.6,29.4v1.1c0,0.9-0.8,1.7-1.7,1.7h-16c-0.9,0-1.7-0.8-1.7-1.7v-1.1c0-0.3-0.3-0.6-0.5-0.6H314
								c-1.7,0-3,1.3-3,3v73.3c0,1.7,1.3,3,3,3h33.7c1.7,0,3-1.3,3-3V31.9c0-1.7-1.3-3-3-3h-6.6C340.8,28.9,340.6,29.1,340.6,29.4z"
								/>
							<rect x="310.3" y="99.9" class="st0" width="41.5" height="8.7"/>
							<g>
								<ellipse class="st6" cx="331.5" cy="104.7" rx="3.1" ry="3.1"/>
								<path class="st7" d="M333.8,104.7c0,1.3-1.1,2.4-2.4,2.4s-2.4-1.1-2.4-2.4s1.1-2.4,2.4-2.4S333.8,103.4,333.8,104.7z"/>
							</g>
							<g>
								<path class="st8" d="M334.4,30.6h-9.7c-0.3,0-0.5-0.2-0.5-0.5l0,0c0-0.3,0.2-0.5,0.5-0.5h9.7c0.3,0,0.5,0.2,0.5,0.5l0,0
									C334.9,30.3,334.7,30.6,334.4,30.6z"/>
								<path class="st8" d="M337.5,30.1c0,0.4-0.3,0.8-0.8,0.8c-0.4,0-0.8-0.4-0.8-0.8s0.4-0.8,0.8-0.8
									C337.2,29.3,337.5,29.6,337.5,30.1z"/>
							</g>
						</g>
						<g>
							<path class="st9" d="M340.2,110.8c0,0-4.6,7-13.7,12.7c-6.1,3.8-9.8,9.7-10.9,11.8c-9.5-2.1-18.1-6.4-25.4-12.3l4-6.6
								c0,0-2.1-10.4-0.9-17.8c2.3-13.5,15.1-37.7,15.1-37.7s3.4,2.9,4.1,6.3c1,4.6-3.7,11.5-3.5,17.2c0.3,6.5,3.9,9.3,6,13.7
								c2.5,5,2.3,8.3,2.3,10s-0.6,2.9-0.6,2.9L340.2,110.8L340.2,110.8z"/>
							<path class="st10" d="M316.8,110.7c0,0-1.3,2.3-2.7,4.7s-2.4,3.6-2.4,3.6s3.5-0.9,5.7-2.5c3.6-2.7,5.9-5.7,5.9-5.7
								L316.8,110.7z"/>
						</g>
					</g>
				</g>
			</g>
			<g>
				<path class="st11" d="M343.7,80h-24.5c-1.3,0-2.4-1-2.4-2.4v-0.8c0-1.3,1-2.4,2.4-2.4h24.5c1.3,0,2.3,1,2.3,2.4v0.8
					C346.1,78.9,345,80,343.7,80z"/>
				<g>
					<path class="st5" d="M325.6,77.6c0,0.1,0,0.1,0,0.2s0,0.1-0.1,0.2l-0.1,0.1c0,0-0.1,0.1-0.2,0.1s-0.1,0-0.2,0.1
						c-0.1,0-0.1,0-0.2,0h-0.6c0,0,0,0-0.1,0s0,0,0-0.1v-2.1V76c0,0,0,0,0.1,0h0.5c0.1,0,0.3,0,0.4,0s0.2,0.1,0.2,0.1
						s0.1,0.1,0.1,0.2s0,0.2,0,0.3c0,0.1,0,0.1,0,0.2c0,0,0,0.1-0.1,0.1s-0.1,0.1-0.1,0.1l-0.1,0.1c0.1,0,0.1,0,0.2,0.1
						c0.1,0,0.1,0.1,0.1,0.1s0.1,0.1,0.1,0.2C325.6,77.5,325.6,77.6,325.6,77.6z M325.1,76.6c0-0.1,0-0.1,0-0.2c0,0,0-0.1-0.1-0.1
						s-0.1-0.1-0.1-0.1s-0.1,0-0.2,0h-0.3V77h0.4c0.1,0,0.1,0,0.2,0c0,0,0.1,0,0.1-0.1s0.1-0.1,0.1-0.1
						C325.1,76.7,325.1,76.6,325.1,76.6z M325.3,77.7c0-0.1,0-0.1,0-0.2l-0.1-0.1c0,0-0.1-0.1-0.2-0.1s-0.1,0-0.3,0h-0.4v0.8h0.5
						c0.1,0,0.1,0,0.2,0c0,0,0.1,0,0.1-0.1l0.1-0.1C325.3,77.8,325.3,77.7,325.3,77.7z"/>
					<path class="st5" d="M327.9,77.4c0,0.1,0,0.3-0.1,0.4s-0.1,0.2-0.2,0.3c-0.1,0.1-0.2,0.1-0.3,0.2c-0.1,0-0.2,0.1-0.4,0.1
						c-0.1,0-0.3,0-0.4-0.1s-0.2-0.1-0.3-0.2c-0.1-0.1-0.1-0.2-0.2-0.3c0-0.1-0.1-0.2-0.1-0.4V76l0,0l0,0l0,0c0,0,0,0,0.1,0
						s0,0,0.1,0l0,0l0,0l0,0v1.4c0,0.1,0,0.2,0,0.3c0,0.1,0.1,0.1,0.1,0.2c0,0,0.1,0.1,0.2,0.1s0.1,0,0.2,0s0.2,0,0.2,0
						c0.1,0,0.1-0.1,0.2-0.1s0.1-0.1,0.1-0.2s0-0.2,0-0.3V76l0,0l0,0l0,0c0,0,0,0,0.1,0s0,0,0.1,0l0,0l0,0l0,0L327.9,77.4
						L327.9,77.4z"/>
					<path class="st5" d="M329.8,78.2L329.8,78.2c0,0.1,0,0.1,0,0.1l0,0l0,0h-1.1c0,0,0,0-0.1,0s0,0,0-0.1v-2.1V76c0,0,0,0,0.1,0
						h1.1l0,0l0,0l0,0c0,0,0,0,0,0.1s0,0,0,0.1s0,0,0,0l0,0l0,0h-0.9v0.7h0.8l0,0l0,0l0,0c0,0,0,0,0,0.1s0,0,0,0.1s0,0,0,0l0,0l0,0
						h-0.8V78h0.9l0,0l0,0C329.8,78.1,329.8,78.1,329.8,78.2C329.8,78.1,329.8,78.2,329.8,78.2z"/>
					<path class="st5" d="M333,78.2L333,78.2c0,0.1,0,0.1,0,0.1l0,0l0,0h-0.1h-0.1c0,0,0,0-0.1,0c0,0,0,0-0.1-0.1c0,0,0-0.1-0.1-0.1
						l-0.7-1.4c0-0.1-0.1-0.1-0.1-0.2s-0.1-0.1-0.1-0.2l0,0c0,0.1,0,0.2,0,0.3c0,0.1,0,0.2,0,0.3v1.4l0,0l0,0l0,0c0,0,0,0-0.1,0
						s-0.1,0-0.1,0l0,0l0,0l0,0v-2.2V76h0.1h0.2h0.1c0,0,0,0,0.1,0c0,0,0,0,0.1,0.1c0,0,0,0.1,0.1,0.1l0.6,1c0,0.1,0.1,0.1,0.1,0.2
						s0.1,0.1,0.1,0.2s0.1,0.1,0.1,0.2s0.1,0.1,0.1,0.2l0,0c0-0.1,0-0.2,0-0.3c0-0.1,0-0.2,0-0.3V76l0,0l0,0l0,0c0,0,0,0,0.1,0
						s0,0,0.1,0l0,0l0,0l0,0L333,78.2L333,78.2z"/>
					<path class="st5" d="M335.6,77.1c0,0.2,0,0.4-0.1,0.5c0,0.1-0.1,0.3-0.2,0.4s-0.2,0.2-0.3,0.3c-0.1,0.1-0.3,0.1-0.5,0.1
						s-0.3,0-0.5-0.1s-0.2-0.1-0.3-0.2c-0.1-0.1-0.1-0.2-0.2-0.4s-0.1-0.3-0.1-0.5s0-0.4,0.1-0.5c0-0.1,0.1-0.3,0.2-0.4
						s0.2-0.2,0.3-0.3c0.1-0.1,0.3-0.1,0.5-0.1s0.3,0,0.5,0.1s0.2,0.1,0.3,0.2c0.1,0.1,0.1,0.2,0.2,0.4
						C335.5,76.7,335.6,76.9,335.6,77.1z M335.2,77.1c0-0.1,0-0.3,0-0.4s-0.1-0.2-0.1-0.3s-0.1-0.1-0.2-0.2c-0.1,0-0.2-0.1-0.3-0.1
						c-0.1,0-0.3,0-0.3,0.1s-0.2,0.1-0.2,0.2s-0.1,0.2-0.1,0.3s0,0.2,0,0.4c0,0.1,0,0.3,0,0.4s0.1,0.2,0.1,0.3
						c0,0.1,0.1,0.1,0.2,0.2c0.1,0,0.2,0.1,0.4,0.1s0.3,0,0.4-0.1c0.1,0,0.2-0.1,0.2-0.2s0.1-0.2,0.1-0.3
						C335.2,77.4,335.2,77.3,335.2,77.1z"/>
					<path class="st5" d="M338.3,78.3L338.3,78.3L338.3,78.3c-0.1,0.1-0.1,0.1-0.1,0.1h-0.1H338c0,0,0,0-0.1,0l0,0l0,0l-0.5-1.8l0,0
						l-0.5,1.8l0,0l0,0c0,0,0,0-0.1,0h-0.1h-0.1c0,0,0,0-0.1,0l0,0l0,0l-0.6-2.2c0,0,0,0,0-0.1l0,0l0,0c0,0,0,0,0.1,0s0.1,0,0.1,0
						l0,0l0,0l0,0l0.5,2l0,0l0.5-2l0,0l0,0l0,0c0,0,0,0,0.1,0h0.1l0,0l0,0l0,0l0.5,2l0,0l0.5-2l0,0l0,0l0,0c0,0,0,0,0.1,0h0.1l0,0
						l0,0c0,0,0,0,0,0.1L338.3,78.3z"/>
				</g>
			</g>
			<g>
				<path class="st12" d="M370.1,119.8c-0.3,1.2-0.6,2.1-0.8,2.8c-6,4.9-13,8.8-20.6,11.2c-0.4,0.1-0.9,0.3-1.3,0.4l-6.3-3
					c-1.6-0.8-3-2.1-3.8-3.7l-9.4-18l-3.1-6c-0.1-0.2-0.1-0.3-0.2-0.5c-0.3-1.2,0.3-2.5,1.6-2.9c1.9-0.7,4-0.5,5.9,1.4
					c3.4,3.4,6,10.1,8.6,10.6L330,80.6c-0.9-2.6,1.5-5.3,4.2-4.7c1,0.2,1.9,0.9,2.4,2.2l8.2,18.3c0,0,2.9-3.8,5.8-2.5
					c1.3,0.6,2.5,2.7,2.5,2.7s2.6-3,5.4-1.3c0.8,0.5,1.7,2.8,1.7,2.8s3-2.8,6.1-0.3C368.2,99.3,370.9,116.8,370.1,119.8z"/>
				<path class="st13" d="M331.1,79.4l0.4,1.3c0.4,1.2,1.7,1.9,2.9,1.5l0,0c1.3-0.4,1.9-1.8,1.4-3.1l-0.5-1.3c-0.4-1-1.5-1.4-2.5-1
					l-0.6,0.3C331.2,77.4,330.8,78.4,331.1,79.4z"/>
				<path class="st13" d="M329.4,108.5l-1.5,0.8l-3.1-6c-0.1-0.2-0.1-0.3-0.2-0.5c0.3-0.1,0.7-0.2,1.1-0.4c1.2-0.4,2.5,0.1,3.1,1.2
					l1.4,2.6C330.6,107.1,330.2,108.1,329.4,108.5z"/>
				<g class="st14">
					<g>
						<g>
							<path class="st15" d="M336.6,85.2c0.2,0.4,0.2,0.9,0.2,1.2c0,0.3-0.1,0.6-0.3,0.7c-0.4,0.3-1.3,0-1.8-0.8s-0.6-1.6,0-2
								c0.3-0.2,0.7-0.2,1.1-0.1C336.2,84.5,336.4,84.8,336.6,85.2z"/>
						</g>
					</g>
				</g>
				<g class="st14">
					<g>
						<g>
							<path class="st15" d="M336.5,86.3c0.1,0.5,0.2,0.9,0.2,1.2c0.1,0.3,0.1,0.5,0,0.6c-0.3,0.2-1.2-0.1-1.6-0.9s-0.7-1.5-0.3-1.8
								c0.2-0.2,0.6-0.2,1,0C336.2,85.5,336.4,85.9,336.5,86.3z"/>
						</g>
					</g>
				</g>
				<g class="st14">
					<g>
						<g>
							<path class="st15" d="M331.8,110.3c0.5,0.8,0.7,1.5,0.3,1.8c-0.4,0.3-1.3,0-1.7-0.8c-0.4-0.8-0.6-1.5-0.3-1.8
								C330.5,109.1,331.3,109.5,331.8,110.3z"/>
						</g>
					</g>
				</g>
				<g class="st14">
					<g>
						<g>
							<path class="st15" d="M332,111.6c0.6,0.7,0.6,1.6,0.3,1.8c-0.3,0.2-1-0.1-1.7-0.7s-0.9-1.5-0.4-1.9
								C330.8,110.5,331.5,110.9,332,111.6z"/>
						</g>
					</g>
				</g>
				<g class="st14">
					<g>
						<g>
							<path class="st16" d="M338.3,112.8c0.2,0.2,0,0.6-0.4,0.9s-0.7,0.4-0.9,0.2c-0.2-0.2-0.1-0.6,0.3-1
								C337.7,112.6,338.1,112.6,338.3,112.8z"/>
						</g>
					</g>
				</g>
				<g class="st14">
					<g>
						<g>
							<path class="st15" d="M340.7,94.2c0.3,0.9,0.4,1.6,0.3,1.7s-0.7-0.4-1.4-1c-0.6-0.7-0.8-1.5-0.4-1.8
								C339.8,92.8,340.5,93.3,340.7,94.2z"/>
						</g>
					</g>
				</g>
				<g class="st14">
					<g>
						<g>
							<path class="st15" d="M341.2,95.2c0.4,0.8,0.4,1.6,0.2,1.8c-0.1,0-0.3-0.1-0.5-0.3c-0.2-0.2-0.5-0.5-0.8-0.9
								s-0.5-0.7-0.5-1.1s0.1-0.6,0.3-0.8C340.3,93.8,340.8,94.4,341.2,95.2z"/>
						</g>
					</g>
				</g>
				<g class="st14">
					<g>
						<g>
							<path class="st15" d="M349.7,93.6c0,0.5,0,0.9-0.1,1.2s-0.1,0.5-0.3,0.7c-0.5,0.3-1.5,0.1-2-0.7c-0.5-0.8-0.5-1.7,0.3-2.2
								c0.4-0.2,0.9-0.3,1.4-0.1C349.4,92.7,349.7,93.2,349.7,93.6z"/>
						</g>
					</g>
				</g>
				<g class="st14">
					<g>
						<g>
							<path class="st15" d="M356.4,94.8c0.2,0.9,0.1,1.7-0.1,1.7c-0.1,0-0.2-0.1-0.3-0.4c-0.2-0.3-0.5-0.6-0.7-0.9
								c-0.3-0.4-0.5-0.8-0.4-1.1c0-0.4,0.2-0.6,0.5-0.7C355.8,93.2,356.1,93.9,356.4,94.8z"/>
						</g>
					</g>
				</g>
				<g class="st14">
					<g>
						<g>
							<path class="st15" d="M363.6,97.2c0.1,0.9,0,1.7-0.2,1.7c-0.1,0-0.5-0.6-0.9-1.4s-0.3-1.7,0.2-1.8
								C363.1,95.6,363.5,96.3,363.6,97.2z"/>
						</g>
					</g>
				</g>
				<g>
					<g>
						<g>
							<path class="st16" d="M343,112.9c0,0.3-0.8,0.5-1.7,0.1c-0.8-0.4-1.3-1-1.1-1.2c0.2-0.2,0.8,0,1.5,0.3
								C342.4,112.4,342.9,112.6,343,112.9z"/>
						</g>
					</g>
				</g>
				<g>
					<g>
						<g>
							<path class="st16" d="M347,101.2c-0.3,0.1-0.8-0.9-1.4-2.2s-0.8-2.5-0.5-2.6s0.9,0.9,1.5,2.2C347,99.9,347.2,101.1,347,101.2
								z"/>
						</g>
					</g>
				</g>
				<g>
					<g>
						<g>
							<path class="st16" d="M354.7,100.3c-0.3,0.1-0.7-0.7-1.2-1.6c-0.5-1-0.7-1.9-0.4-2c0.3-0.1,0.8,0.6,1.3,1.6
								S355,100.3,354.7,100.3z"/>
						</g>
					</g>
				</g>
				<g>
					<g>
						<g>
							<path class="st16" d="M362.5,102.1c-0.2,0.2-1.1-0.4-1.8-1.5c-0.7-1.1-0.7-2.2-0.5-2.3c0.3-0.1,0.7,0.8,1.3,1.8
								C362.1,101.1,362.7,101.9,362.5,102.1z"/>
						</g>
					</g>
				</g>
			</g>
		</g>
		<g>
			<path class="st17" d="M340.3,66H322c-2.3,0-4.2-1.9-4.2-4.2V43.1c0-2.3,1.9-4.2,4.2-4.2h18.3c2.3,0,4.2,1.9,4.2,4.2v18.6
				C344.5,64.1,342.6,66,340.3,66z"/>
		</g>
	</g>
	<ellipse class="st18" cx="331" cy="45.4" rx="3.7" ry="4"/>
	<polygon class="st1" points="323.6,46 321.9,62 339.8,62 338.3,46 	"/>
</g>
</svg>
